<?xml version="1.0" encoding="utf-8"?>
<!-- Generator: Adobe Illustrator 25.0.0, SVG Export Plug-In . SVG Version: 6.00 Build 0)  -->
<svg version="1.1" id="Layer_1" xmlns="http://www.w3.org/2000/svg" xmlns:xlink="http://www.w3.org/1999/xlink" x="0px" y="0px"
	 viewBox="0 0 239 64" style="enable-background:new 0 0 239 64;" xml:space="preserve">
<style type="text/css">
	.st0{fill:none;}
	.st1{enable-background:new    ;}
	.st2{fill:#22222A;}
	.st3{fill:#057645;}
</style>
<g>
	<g>
		<rect y="35.2" class="st0" width="240.3" height="33.9"/>
		<g class="st1">
			<path class="st2" d="M21.2,38.3v-1.1h6.4v1.1l-2.4,0.3l-4.7,17.4h-1.2l-4.8-14.5L9.9,56.1H8.7l-5-17.5l-2.3-0.3v-1.1H9v1.1
				l-2.6,0.3l3.4,12.9l4.3-12.8l-2.8-0.3v-1.1h7.6v1.1l-2.8,0.3l4.2,13l3.6-12.9L21.2,38.3z"/>
		</g>
		<g class="st1">
			<path class="st2" d="M29.9,55.9v-1l2.1-0.4c0-0.7,0-1.5,0-2.3c0-0.8,0-1.6,0-2.2V37.7l-2.3-0.3v-1l4.3-1.3l0.4,0.2l-0.1,4v5.4
				c0.7-0.8,1.5-1.4,2.4-1.9c0.9-0.5,1.8-0.7,2.7-0.7c1.2,0,2.1,0.4,2.7,1.2c0.6,0.8,0.9,2.1,0.9,4V50c0,0.6,0,1.4,0,2.2
				c0,0.8,0,1.6,0,2.3l2,0.4v1h-6.5v-1l2-0.4c0-0.7,0-1.5,0-2.3c0-0.8,0-1.6,0-2.2v-2.4c0-1.3-0.2-2.2-0.5-2.7
				c-0.4-0.5-0.9-0.7-1.8-0.7c-0.7,0-1.3,0.1-2,0.4c-0.6,0.3-1.3,0.7-2,1.4V50c0,0.6,0,1.3,0,2.2c0,0.8,0,1.6,0,2.3l1.9,0.4v1H29.9z
				"/>
		</g>
		<g class="st1">
			<path class="st2" d="M48.5,55.9v-1l2.1-0.4c0-0.7,0-1.5,0-2.3c0-0.8,0-1.6,0-2.2v-1.3c0-0.8,0-1.4,0-1.9c0-0.5,0-1-0.1-1.6
				l-2.2-0.3v-1l4.3-1.7l0.4,0.3L53,46.3V50c0,0.6,0,1.3,0,2.2c0,0.8,0,1.6,0,2.3l2,0.4v1H48.5z M51.8,39.1c-0.5,0-1-0.2-1.3-0.5
				c-0.4-0.3-0.5-0.8-0.5-1.3c0-0.5,0.2-1,0.5-1.3c0.4-0.3,0.8-0.5,1.3-0.5c0.5,0,1,0.2,1.3,0.5c0.4,0.3,0.5,0.8,0.5,1.3
				c0,0.5-0.2,1-0.5,1.3C52.8,38.9,52.3,39.1,51.8,39.1z"/>
			<path class="st2" d="M63.6,56.2c-1,0-1.7-0.3-2.3-0.8c-0.6-0.5-0.9-1.3-0.9-2.4c0-0.4,0-0.7,0-1c0-0.3,0-0.8,0-1.3V44h-2.3v-1.2
				l2.5-0.3l0.7-3.8H63l-0.2,3.8h3.8V44h-3.8v8.7c0,0.7,0.1,1.2,0.4,1.6c0.3,0.3,0.7,0.5,1.1,0.5c0.3,0,0.6-0.1,0.9-0.2
				c0.3-0.1,0.6-0.3,1-0.6l0.7,0.7C66.1,55.7,65,56.2,63.6,56.2z"/>
			<path class="st2" d="M69.9,55.9v-1l2.2-0.4c0-0.7,0-1.5,0-2.2c0-0.7,0-1.5,0-2.2V44h-2.3v-1.2l2.4-0.3c0.1-1.5,0.3-2.7,0.6-3.6
				c0.3-0.9,0.8-1.7,1.5-2.4c0.6-0.6,1.2-1,1.9-1.2c0.7-0.2,1.3-0.3,1.9-0.3c0.7,0,1.2,0.1,1.7,0.3s0.8,0.6,1,1.2
				c0,0.4-0.2,0.7-0.5,0.9c-0.3,0.2-0.7,0.4-1.2,0.4c-0.7,0-1.3-0.3-2-0.8l-0.8-0.6c-0.1,0.1-0.1,0.1-0.2,0.2
				c-0.1,0.1-0.1,0.1-0.2,0.2c-0.5,0.5-0.9,1.2-1.1,2.2c-0.3,1-0.4,2.3-0.3,3.8h3.9V44h-3.8V50c0,0.7,0,1.5,0,2.2c0,0.7,0,1.5,0,2.2
				l2.5,0.4v1H69.9z"/>
		</g>
		<g class="st1">
			<path class="st2" d="M82.3,55.9v-1l2.1-0.4c0-0.7,0-1.5,0-2.3c0-0.8,0-1.6,0-2.2v-1.3c0-0.8,0-1.4,0-1.9c0-0.5,0-1-0.1-1.6
				l-2.2-0.3v-1l4.3-1.7l0.4,0.3l-0.1,3.8V50c0,0.6,0,1.3,0,2.2c0,0.8,0,1.6,0,2.3l2,0.4v1H82.3z M85.6,39.1c-0.5,0-1-0.2-1.3-0.5
				c-0.4-0.3-0.5-0.8-0.5-1.3c0-0.5,0.2-1,0.5-1.3c0.4-0.3,0.8-0.5,1.3-0.5c0.5,0,1,0.2,1.3,0.5c0.4,0.3,0.5,0.8,0.5,1.3
				c0,0.5-0.2,1-0.5,1.3C86.6,38.9,86.1,39.1,85.6,39.1z"/>
			<path class="st2" d="M99.2,56.2c-1.9,0-3.4-0.6-4.5-1.8s-1.7-2.9-1.7-5.1c0-1.4,0.3-2.7,0.9-3.8c0.6-1.1,1.4-1.9,2.4-2.5
				s2-0.9,3.2-0.9c1,0,1.8,0.2,2.6,0.6c0.8,0.4,1.4,1,1.9,1.8c0.5,0.8,0.7,1.8,0.7,2.9c0,0.3,0,0.6-0.1,0.9c0,0.3-0.1,0.5-0.1,0.7
				h-8.9c0,1.7,0.5,3,1.3,3.9c0.8,0.9,1.9,1.3,3.2,1.3c0.9,0,1.6-0.2,2.2-0.5c0.6-0.4,1.1-0.8,1.7-1.4l0.7,0.5
				c-0.5,1-1.2,1.8-2.1,2.4C101.5,55.9,100.4,56.2,99.2,56.2z M99.2,43.5c-0.5,0-1.1,0.1-1.6,0.4c-0.5,0.3-1,0.8-1.4,1.4
				c-0.4,0.7-0.6,1.5-0.7,2.6h5.1c0.7,0,1.1-0.1,1.3-0.4c0.2-0.3,0.3-0.6,0.3-1c0-0.5-0.1-1-0.4-1.5c-0.3-0.5-0.6-0.8-1.1-1.1
				C100.3,43.6,99.8,43.5,99.2,43.5z"/>
			<path class="st2" d="M108.3,55.9v-1l2.2-0.4c0-0.8,0-1.5,0-2.3c0-0.7,0-1.5,0-2.2V37.7l-2.3-0.3v-1l4.4-1.3l0.4,0.2l-0.1,4V50
				c0,0.7,0,1.5,0,2.2c0,0.7,0,1.5,0,2.2l2.2,0.4v1H108.3z"/>
		</g>
		<g class="st1">
			<path class="st2" d="M130.1,56.1l-0.2-1.9c-0.5,0.6-1,1.1-1.7,1.5s-1.4,0.5-2.3,0.5c-1.1,0-2.1-0.3-3-0.9s-1.5-1.4-2-2.4
				c-0.5-1-0.7-2.2-0.7-3.6c0-1.4,0.3-2.7,0.8-3.8c0.5-1.1,1.2-1.9,2.1-2.5c0.9-0.6,1.9-0.9,3.1-0.9c0.7,0,1.3,0.1,1.9,0.4
				c0.6,0.3,1.2,0.7,1.8,1.4v-6.3l-2.4-0.3v-1l4.4-1.3l0.4,0.2l-0.1,4v15.1l2.3,0.3v1L130.1,56.1z M122.8,49.3c0,1.8,0.4,3.2,1.1,4
				s1.7,1.3,2.8,1.3c0.6,0,1.2-0.1,1.6-0.4c0.5-0.3,1-0.7,1.5-1.2v-7.8c-0.6-0.6-1.2-0.9-1.7-1.1s-1-0.3-1.5-0.3
				c-0.7,0-1.3,0.2-1.9,0.6c-0.6,0.4-1.1,1-1.4,1.8C123,47,122.8,48,122.8,49.3z"/>
		</g>
		<g class="st1">
			<path class="st2" d="M162.3,56.3c-1.9,0-3.5-0.4-4.9-1.3c-1.4-0.8-2.5-2-3.3-3.5c-0.8-1.5-1.2-3.2-1.2-5s0.4-3.6,1.2-5
				c0.8-1.5,1.9-2.6,3.3-3.5c1.4-0.8,3.1-1.3,5-1.3c1.2,0,2.2,0.1,3.1,0.3c0.9,0.2,1.8,0.5,2.5,1l0.1,4.1h-1.7l-0.6-3.2
				c-1-0.5-2-0.8-3.2-0.8c-1.3,0-2.4,0.3-3.5,1c-1,0.7-1.8,1.6-2.4,2.8s-0.9,2.8-0.9,4.5c0,2.7,0.6,4.7,1.8,6.2s2.9,2.2,5.1,2.2
				c1.1,0,2.1-0.2,3-0.6v-0.9c0-0.8,0-1.7,0-2.5s0-1.7,0-2.5l-2.9-0.3V47h7.4v1.1l-1.7,0.2c0,0.8,0,1.7,0,2.5c0,0.9,0,1.7,0,2.6v1.2
				c-1,0.5-2,0.9-2.9,1.2C164.5,56.1,163.4,56.3,162.3,56.3z"/>
			<path class="st2" d="M173.8,55.9v-1l2-0.4c0-0.7,0-1.5,0-2.3c0-0.8,0-1.6,0-2.2v-1.3c0-0.8,0-1.4,0-1.9c0-0.5,0-1-0.1-1.6
				l-2.2-0.3v-1l3.9-1.7l0.4,0.3l0.3,3.3c0.5-1.1,1.1-2,1.8-2.6s1.5-1,2.2-1c0.4,0,0.8,0.1,1.2,0.3c0.4,0.2,0.6,0.4,0.8,0.8
				c0,1.4-0.6,2-1.7,2c-0.3,0-0.6-0.1-0.9-0.2s-0.6-0.3-0.8-0.5l-0.3-0.3c-0.6,0.4-1,0.9-1.4,1.5c-0.4,0.6-0.7,1.3-0.9,2.1V50
				c0,0.6,0,1.3,0,2.2s0,1.6,0,2.3l2.3,0.4v1H173.8z"/>
			<path class="st2" d="M193.8,56.2c-1.1,0-2.1-0.3-3.1-0.8c-1-0.5-1.8-1.3-2.4-2.3c-0.6-1-0.9-2.3-0.9-3.8c0-1.5,0.3-2.9,0.9-3.9
				c0.6-1.1,1.4-1.8,2.4-2.4c1-0.5,2-0.8,3.1-0.8c1.1,0,2.1,0.3,3.1,0.8c1,0.5,1.8,1.3,2.4,2.4c0.6,1.1,0.9,2.4,0.9,3.9
				c0,1.5-0.3,2.8-0.9,3.8c-0.6,1-1.4,1.8-2.4,2.3C195.9,56,194.9,56.2,193.8,56.2z M193.8,55c1.2,0,2.1-0.5,2.8-1.4
				c0.7-1,1-2.4,1-4.2c0-1.9-0.3-3.3-1-4.3s-1.6-1.5-2.8-1.5c-1.2,0-2.1,0.5-2.8,1.5s-1,2.4-1,4.3c0,1.9,0.3,3.3,1,4.2
				C191.7,54.5,192.6,55,193.8,55z"/>
			<path class="st2" d="M209.5,56.2c-1.1,0-2-0.4-2.7-1.1c-0.7-0.8-1-2.1-1-3.9l0.1-7l-2-0.4v-1l4.1-0.4l0.3,0.3l-0.1,3.9v4.3
				c0,1.2,0.2,2.1,0.6,2.6c0.4,0.5,0.9,0.7,1.7,0.7c1.3,0,2.6-0.6,3.9-1.8l0.1-8.2l-2-0.4v-1l4.1-0.4l0.3,0.3l-0.1,3.9v7.9l1.9,0.4
				v1l-3.9,0.2l-0.3-2.5c-0.7,0.9-1.5,1.6-2.4,2S210.3,56.2,209.5,56.2z"/>
			<path class="st2" d="M222.2,62.6v-1l2.2-0.4c0-0.8,0-1.5,0-2.3c0-0.8,0-1.5,0-2.3v-8c0-0.8,0-1.4,0-1.9c0-0.5,0-1-0.1-1.6
				l-2.2-0.3v-1l3.9-1.7l0.4,0.3l0.2,1.8c1.3-1.4,2.7-2.1,4.2-2.1c1,0,1.9,0.3,2.7,0.8c0.8,0.6,1.4,1.4,1.9,2.4
				c0.5,1,0.7,2.3,0.7,3.7c0,1.4-0.3,2.7-0.8,3.7s-1.2,1.9-2.1,2.5s-1.9,0.9-3,0.9c-0.6,0-1.3-0.1-1.9-0.4c-0.6-0.3-1.2-0.7-1.8-1.4
				v2.2c0,0.7,0,1.5,0,2.3s0,1.5,0,2.3l2.5,0.4v1H222.2z M230.3,43.8c-0.4,0-0.9,0.1-1.5,0.3c-0.6,0.2-1.2,0.6-1.9,1.2v7.9
				c0.5,0.5,1,0.9,1.5,1.1c0.5,0.2,1,0.3,1.5,0.3c1,0,1.9-0.4,2.7-1.3c0.7-0.8,1.1-2.2,1.1-4c0-1.8-0.3-3.2-1-4.1
				C232.2,44.3,231.3,43.8,230.3,43.8z"/>
		</g>
	</g>
	<g>
		<g>
			<g>
				<path class="st2" d="M94.5,20.8l10.3-8.9L94.5,3l0.7-1.8l11.8,9.9v1.5l-11.8,9.9L94.5,20.8z"/>
			</g>
			<g>
				<path class="st2" d="M223,20.8l10.3-8.9L223,3l0.7-1.8l11.8,9.9v1.5l-11.8,9.9L223,20.8z"/>
			</g>
			<g>
				<path class="st2" d="M29.6,21v-1.1l2.6-0.3c0-0.8,0.1-1.7,0.1-2.5s0-1.7,0-2.6c-1.6-0.1-2.8-0.4-3.8-0.9
					c-0.9-0.5-1.6-1.3-2.1-2.4s-0.9-2.5-1.1-4.3l-0.3-2c-0.1-0.4-0.2-0.8-0.3-1s-0.4-0.4-0.8-0.4l-0.8-0.1V2.3h1.4
					c0.8,0,1.4,0.1,1.8,0.3s0.7,0.6,1,1.1c0.2,0.5,0.4,1.2,0.4,2l0.1,1.2c0.2,1.4,0.4,2.5,0.6,3.4s0.7,1.6,1.2,2
					c0.6,0.5,1.4,0.8,2.5,0.9c0-0.1,0-0.3,0-0.4c0-0.1,0-0.3,0-0.4V11c0-1.2,0-2.4,0-3.6s0-2.4-0.1-3.6l-2.5-0.3V2.3h7.8v1.1L35,3.7
					c0,1.2,0,2.4,0,3.6s0,2.4,0,3.6v1.4c0,0.1,0,0.3,0,0.4c0,0.1,0,0.3,0,0.4c1.1-0.1,2-0.4,2.5-0.9s1-1.1,1.2-2
					c0.3-0.9,0.5-2,0.6-3.4l0.1-1.2c0.1-0.8,0.2-1.5,0.4-2s0.5-0.8,1-1.1c0.4-0.2,1.1-0.3,1.8-0.3H44v1.1l-0.7,0.1
					c-0.4,0.1-0.7,0.2-0.9,0.4s-0.3,0.5-0.4,1l-0.3,2c-0.3,1.8-0.6,3.2-1.1,4.3s-1.2,1.9-2.1,2.4c-0.9,0.5-2.2,0.8-3.8,0.9
					c0,0.9,0,1.7,0,2.6s0,1.7,0,2.6l2.6,0.3V21H29.6z"/>
			</g>
			<g>
				<path class="st2" d="M52.2,24.5V0h1.7v24.5H52.2z"/>
			</g>
			<g>
				<path class="st2" d="M186,24.5V0h1.7v24.5H186z"/>
			</g>
			<g>
				<g>
					<path class="st3" d="M80.8,3.4V2.3h6.4v1.1l-2.4,0.3l-4.7,17.4h-1.2L74.1,6.7l-4.6,14.5h-1.2l-5-17.5L61,3.4V2.3h7.6v1.1
						L66,3.7l3.4,12.9l4.3-12.8l-2.8-0.3V2.3h7.6v1.1l-2.8,0.3l4.2,13l3.6-12.9L80.8,3.4z"/>
				</g>
			</g>
			<g>
				<path class="st2" d="M124.7,18.8v-6.3h-5.8V11h5.8V4.8h1.7V11h5.8v1.6h-5.8v6.3h-1.7V18.8z"/>
			</g>
			<g>
				<g>
					<path class="st3" d="M170,21.4c-1.9,0-3.5-0.4-4.9-1.3c-1.4-0.8-2.5-2-3.3-3.5s-1.2-3.2-1.2-5s0.4-3.6,1.2-5
						c0.8-1.5,1.9-2.6,3.3-3.5s3.1-1.3,5-1.3c1.2,0,2.2,0.1,3.1,0.3c0.9,0.2,1.8,0.5,2.5,1l0.1,4.1h-1.7L173.5,4
						c-1-0.5-2-0.8-3.2-0.8c-1.3,0-2.4,0.3-3.5,1c-1,0.7-1.8,1.6-2.4,2.8s-0.9,2.8-0.9,4.5c0,2.7,0.6,4.7,1.8,6.2s2.9,2.2,5.1,2.2
						c1.1,0,2.1-0.2,3-0.6v-0.9c0-0.8,0-1.7,0-2.5c0-0.8,0-1.7,0-2.5l-2.9-0.3V12h7.4v1.1l-1.7,0.2c0,0.8,0,1.7,0,2.5
						c0,0.9,0,1.7,0,2.6v1.2c-1,0.5-2,0.9-2.9,1.2C172.2,21.3,171.2,21.4,170,21.4z"/>
				</g>
			</g>
			<g>
				<path class="st2" d="M201,21v-1.1l2.6-0.3c0-0.8,0.1-1.7,0.1-2.5s0-1.7,0-2.6c-1.6-0.1-2.8-0.4-3.8-0.9
					c-0.9-0.5-1.6-1.3-2.1-2.4s-0.9-2.5-1.1-4.3l-0.3-2c-0.1-0.4-0.2-0.8-0.3-1s-0.4-0.4-0.8-0.4l-0.8-0.1V2.3h1.4
					c0.8,0,1.4,0.1,1.8,0.3c0.4,0.2,0.7,0.6,1,1.1c0.2,0.5,0.4,1.2,0.4,2l0.1,1.2c0.2,1.4,0.4,2.5,0.6,3.4s0.7,1.6,1.2,2
					c0.6,0.5,1.4,0.8,2.5,0.9c0-0.1,0-0.3,0-0.4c0-0.1,0-0.3,0-0.4V11c0-1.2,0-2.4,0-3.6s0-2.4-0.1-3.6L201,3.4V2.3h7.8v1.1
					l-2.5,0.3c0,1.2,0,2.4,0,3.6s0,2.4,0,3.6v1.4c0,0.1,0,0.3,0,0.4c0,0.1,0,0.3,0,0.4c1.1-0.1,2-0.4,2.5-0.9s1-1.1,1.2-2
					c0.3-0.9,0.5-2,0.6-3.4l0.1-1.2c0.1-0.8,0.2-1.5,0.4-2s0.5-0.8,1-1.1c0.4-0.2,1-0.3,1.8-0.3h1.4v1.1l-0.7,0.1
					c-0.4,0.1-0.7,0.2-0.9,0.4s-0.3,0.5-0.4,1l-0.3,2c-0.3,1.8-0.6,3.2-1.1,4.3s-1.2,1.9-2.1,2.4c-0.9,0.5-2.2,0.8-3.8,0.9
					c0,0.9,0,1.7,0,2.6c0,0.8,0,1.7,0,2.6l2.6,0.3V21H201z"/>
			</g>
			<g>
				<path class="st2" d="M15.7,22.6L3.9,12.7v-1.5l11.8-9.9L16.4,3L6.1,11.9l10.3,8.9L15.7,22.6z"/>
			</g>
			<g>
				<polygon class="st2" points="155.9,22.6 144.1,12.7 144.1,11.2 155.9,1.3 156.6,3 146.3,11.9 156.6,20.8 				"/>
			</g>
		</g>
	</g>
</g>
</svg>
